%TF.GenerationSoftware,KiCad,Pcbnew,9.0.7*%
%TF.CreationDate,2026-01-04T10:47:51+09:00*%
%TF.ProjectId,PCB,5043422e-6b69-4636-9164-5f7063625858,rev?*%
%TF.SameCoordinates,Original*%
%TF.FileFunction,Legend,Top*%
%TF.FilePolarity,Positive*%
%FSLAX46Y46*%
G04 Gerber Fmt 4.6, Leading zero omitted, Abs format (unit mm)*
G04 Created by KiCad (PCBNEW 9.0.7) date 2026-01-04 10:47:51*
%MOMM*%
%LPD*%
G01*
G04 APERTURE LIST*
%ADD10C,0.150000*%
%ADD11C,0.120000*%
G04 APERTURE END LIST*
D10*
X71954819Y-77521904D02*
X72764342Y-77521904D01*
X72764342Y-77521904D02*
X72859580Y-77474285D01*
X72859580Y-77474285D02*
X72907200Y-77426666D01*
X72907200Y-77426666D02*
X72954819Y-77331428D01*
X72954819Y-77331428D02*
X72954819Y-77140952D01*
X72954819Y-77140952D02*
X72907200Y-77045714D01*
X72907200Y-77045714D02*
X72859580Y-76998095D01*
X72859580Y-76998095D02*
X72764342Y-76950476D01*
X72764342Y-76950476D02*
X71954819Y-76950476D01*
X72954819Y-75950476D02*
X72954819Y-76521904D01*
X72954819Y-76236190D02*
X71954819Y-76236190D01*
X71954819Y-76236190D02*
X72097676Y-76331428D01*
X72097676Y-76331428D02*
X72192914Y-76426666D01*
X72192914Y-76426666D02*
X72240533Y-76521904D01*
X92339700Y-79375832D02*
X92387319Y-79232975D01*
X92387319Y-79232975D02*
X92387319Y-78994880D01*
X92387319Y-78994880D02*
X92339700Y-78899642D01*
X92339700Y-78899642D02*
X92292080Y-78852023D01*
X92292080Y-78852023D02*
X92196842Y-78804404D01*
X92196842Y-78804404D02*
X92101604Y-78804404D01*
X92101604Y-78804404D02*
X92006366Y-78852023D01*
X92006366Y-78852023D02*
X91958747Y-78899642D01*
X91958747Y-78899642D02*
X91911128Y-78994880D01*
X91911128Y-78994880D02*
X91863509Y-79185356D01*
X91863509Y-79185356D02*
X91815890Y-79280594D01*
X91815890Y-79280594D02*
X91768271Y-79328213D01*
X91768271Y-79328213D02*
X91673033Y-79375832D01*
X91673033Y-79375832D02*
X91577795Y-79375832D01*
X91577795Y-79375832D02*
X91482557Y-79328213D01*
X91482557Y-79328213D02*
X91434938Y-79280594D01*
X91434938Y-79280594D02*
X91387319Y-79185356D01*
X91387319Y-79185356D02*
X91387319Y-78947261D01*
X91387319Y-78947261D02*
X91434938Y-78804404D01*
X91387319Y-78471070D02*
X92387319Y-78232975D01*
X92387319Y-78232975D02*
X91673033Y-78042499D01*
X91673033Y-78042499D02*
X92387319Y-77852023D01*
X92387319Y-77852023D02*
X91387319Y-77613928D01*
X92387319Y-76709166D02*
X92387319Y-77280594D01*
X92387319Y-76994880D02*
X91387319Y-76994880D01*
X91387319Y-76994880D02*
X91530176Y-77090118D01*
X91530176Y-77090118D02*
X91625414Y-77185356D01*
X91625414Y-77185356D02*
X91673033Y-77280594D01*
X75883333Y-101534819D02*
X75550000Y-101058628D01*
X75311905Y-101534819D02*
X75311905Y-100534819D01*
X75311905Y-100534819D02*
X75692857Y-100534819D01*
X75692857Y-100534819D02*
X75788095Y-100582438D01*
X75788095Y-100582438D02*
X75835714Y-100630057D01*
X75835714Y-100630057D02*
X75883333Y-100725295D01*
X75883333Y-100725295D02*
X75883333Y-100868152D01*
X75883333Y-100868152D02*
X75835714Y-100963390D01*
X75835714Y-100963390D02*
X75788095Y-101011009D01*
X75788095Y-101011009D02*
X75692857Y-101058628D01*
X75692857Y-101058628D02*
X75311905Y-101058628D01*
X76264286Y-100630057D02*
X76311905Y-100582438D01*
X76311905Y-100582438D02*
X76407143Y-100534819D01*
X76407143Y-100534819D02*
X76645238Y-100534819D01*
X76645238Y-100534819D02*
X76740476Y-100582438D01*
X76740476Y-100582438D02*
X76788095Y-100630057D01*
X76788095Y-100630057D02*
X76835714Y-100725295D01*
X76835714Y-100725295D02*
X76835714Y-100820533D01*
X76835714Y-100820533D02*
X76788095Y-100963390D01*
X76788095Y-100963390D02*
X76216667Y-101534819D01*
X76216667Y-101534819D02*
X76835714Y-101534819D01*
X75883333Y-95534819D02*
X75550000Y-95058628D01*
X75311905Y-95534819D02*
X75311905Y-94534819D01*
X75311905Y-94534819D02*
X75692857Y-94534819D01*
X75692857Y-94534819D02*
X75788095Y-94582438D01*
X75788095Y-94582438D02*
X75835714Y-94630057D01*
X75835714Y-94630057D02*
X75883333Y-94725295D01*
X75883333Y-94725295D02*
X75883333Y-94868152D01*
X75883333Y-94868152D02*
X75835714Y-94963390D01*
X75835714Y-94963390D02*
X75788095Y-95011009D01*
X75788095Y-95011009D02*
X75692857Y-95058628D01*
X75692857Y-95058628D02*
X75311905Y-95058628D01*
X76835714Y-95534819D02*
X76264286Y-95534819D01*
X76550000Y-95534819D02*
X76550000Y-94534819D01*
X76550000Y-94534819D02*
X76454762Y-94677676D01*
X76454762Y-94677676D02*
X76359524Y-94772914D01*
X76359524Y-94772914D02*
X76264286Y-94820533D01*
X82991905Y-100494819D02*
X82991905Y-99494819D01*
X82991905Y-99494819D02*
X83230000Y-99494819D01*
X83230000Y-99494819D02*
X83372857Y-99542438D01*
X83372857Y-99542438D02*
X83468095Y-99637676D01*
X83468095Y-99637676D02*
X83515714Y-99732914D01*
X83515714Y-99732914D02*
X83563333Y-99923390D01*
X83563333Y-99923390D02*
X83563333Y-100066247D01*
X83563333Y-100066247D02*
X83515714Y-100256723D01*
X83515714Y-100256723D02*
X83468095Y-100351961D01*
X83468095Y-100351961D02*
X83372857Y-100447200D01*
X83372857Y-100447200D02*
X83230000Y-100494819D01*
X83230000Y-100494819D02*
X82991905Y-100494819D01*
X83944286Y-99590057D02*
X83991905Y-99542438D01*
X83991905Y-99542438D02*
X84087143Y-99494819D01*
X84087143Y-99494819D02*
X84325238Y-99494819D01*
X84325238Y-99494819D02*
X84420476Y-99542438D01*
X84420476Y-99542438D02*
X84468095Y-99590057D01*
X84468095Y-99590057D02*
X84515714Y-99685295D01*
X84515714Y-99685295D02*
X84515714Y-99780533D01*
X84515714Y-99780533D02*
X84468095Y-99923390D01*
X84468095Y-99923390D02*
X83896667Y-100494819D01*
X83896667Y-100494819D02*
X84515714Y-100494819D01*
X83261905Y-94494819D02*
X83261905Y-93494819D01*
X83261905Y-93494819D02*
X83500000Y-93494819D01*
X83500000Y-93494819D02*
X83642857Y-93542438D01*
X83642857Y-93542438D02*
X83738095Y-93637676D01*
X83738095Y-93637676D02*
X83785714Y-93732914D01*
X83785714Y-93732914D02*
X83833333Y-93923390D01*
X83833333Y-93923390D02*
X83833333Y-94066247D01*
X83833333Y-94066247D02*
X83785714Y-94256723D01*
X83785714Y-94256723D02*
X83738095Y-94351961D01*
X83738095Y-94351961D02*
X83642857Y-94447200D01*
X83642857Y-94447200D02*
X83500000Y-94494819D01*
X83500000Y-94494819D02*
X83261905Y-94494819D01*
X84785714Y-94494819D02*
X84214286Y-94494819D01*
X84500000Y-94494819D02*
X84500000Y-93494819D01*
X84500000Y-93494819D02*
X84404762Y-93637676D01*
X84404762Y-93637676D02*
X84309524Y-93732914D01*
X84309524Y-93732914D02*
X84214286Y-93780533D01*
X81333333Y-117989580D02*
X81285714Y-118037200D01*
X81285714Y-118037200D02*
X81142857Y-118084819D01*
X81142857Y-118084819D02*
X81047619Y-118084819D01*
X81047619Y-118084819D02*
X80904762Y-118037200D01*
X80904762Y-118037200D02*
X80809524Y-117941961D01*
X80809524Y-117941961D02*
X80761905Y-117846723D01*
X80761905Y-117846723D02*
X80714286Y-117656247D01*
X80714286Y-117656247D02*
X80714286Y-117513390D01*
X80714286Y-117513390D02*
X80761905Y-117322914D01*
X80761905Y-117322914D02*
X80809524Y-117227676D01*
X80809524Y-117227676D02*
X80904762Y-117132438D01*
X80904762Y-117132438D02*
X81047619Y-117084819D01*
X81047619Y-117084819D02*
X81142857Y-117084819D01*
X81142857Y-117084819D02*
X81285714Y-117132438D01*
X81285714Y-117132438D02*
X81333333Y-117180057D01*
X81666667Y-117084819D02*
X82285714Y-117084819D01*
X82285714Y-117084819D02*
X81952381Y-117465771D01*
X81952381Y-117465771D02*
X82095238Y-117465771D01*
X82095238Y-117465771D02*
X82190476Y-117513390D01*
X82190476Y-117513390D02*
X82238095Y-117561009D01*
X82238095Y-117561009D02*
X82285714Y-117656247D01*
X82285714Y-117656247D02*
X82285714Y-117894342D01*
X82285714Y-117894342D02*
X82238095Y-117989580D01*
X82238095Y-117989580D02*
X82190476Y-118037200D01*
X82190476Y-118037200D02*
X82095238Y-118084819D01*
X82095238Y-118084819D02*
X81809524Y-118084819D01*
X81809524Y-118084819D02*
X81714286Y-118037200D01*
X81714286Y-118037200D02*
X81666667Y-117989580D01*
X81333333Y-108732080D02*
X81285714Y-108779700D01*
X81285714Y-108779700D02*
X81142857Y-108827319D01*
X81142857Y-108827319D02*
X81047619Y-108827319D01*
X81047619Y-108827319D02*
X80904762Y-108779700D01*
X80904762Y-108779700D02*
X80809524Y-108684461D01*
X80809524Y-108684461D02*
X80761905Y-108589223D01*
X80761905Y-108589223D02*
X80714286Y-108398747D01*
X80714286Y-108398747D02*
X80714286Y-108255890D01*
X80714286Y-108255890D02*
X80761905Y-108065414D01*
X80761905Y-108065414D02*
X80809524Y-107970176D01*
X80809524Y-107970176D02*
X80904762Y-107874938D01*
X80904762Y-107874938D02*
X81047619Y-107827319D01*
X81047619Y-107827319D02*
X81142857Y-107827319D01*
X81142857Y-107827319D02*
X81285714Y-107874938D01*
X81285714Y-107874938D02*
X81333333Y-107922557D01*
X81714286Y-107922557D02*
X81761905Y-107874938D01*
X81761905Y-107874938D02*
X81857143Y-107827319D01*
X81857143Y-107827319D02*
X82095238Y-107827319D01*
X82095238Y-107827319D02*
X82190476Y-107874938D01*
X82190476Y-107874938D02*
X82238095Y-107922557D01*
X82238095Y-107922557D02*
X82285714Y-108017795D01*
X82285714Y-108017795D02*
X82285714Y-108113033D01*
X82285714Y-108113033D02*
X82238095Y-108255890D01*
X82238095Y-108255890D02*
X81666667Y-108827319D01*
X81666667Y-108827319D02*
X82285714Y-108827319D01*
X81833333Y-86732080D02*
X81785714Y-86779700D01*
X81785714Y-86779700D02*
X81642857Y-86827319D01*
X81642857Y-86827319D02*
X81547619Y-86827319D01*
X81547619Y-86827319D02*
X81404762Y-86779700D01*
X81404762Y-86779700D02*
X81309524Y-86684461D01*
X81309524Y-86684461D02*
X81261905Y-86589223D01*
X81261905Y-86589223D02*
X81214286Y-86398747D01*
X81214286Y-86398747D02*
X81214286Y-86255890D01*
X81214286Y-86255890D02*
X81261905Y-86065414D01*
X81261905Y-86065414D02*
X81309524Y-85970176D01*
X81309524Y-85970176D02*
X81404762Y-85874938D01*
X81404762Y-85874938D02*
X81547619Y-85827319D01*
X81547619Y-85827319D02*
X81642857Y-85827319D01*
X81642857Y-85827319D02*
X81785714Y-85874938D01*
X81785714Y-85874938D02*
X81833333Y-85922557D01*
X82785714Y-86827319D02*
X82214286Y-86827319D01*
X82500000Y-86827319D02*
X82500000Y-85827319D01*
X82500000Y-85827319D02*
X82404762Y-85970176D01*
X82404762Y-85970176D02*
X82309524Y-86065414D01*
X82309524Y-86065414D02*
X82214286Y-86113033D01*
X39431009Y-122425714D02*
X39478628Y-122282857D01*
X39478628Y-122282857D02*
X39526247Y-122235238D01*
X39526247Y-122235238D02*
X39621485Y-122187619D01*
X39621485Y-122187619D02*
X39764342Y-122187619D01*
X39764342Y-122187619D02*
X39859580Y-122235238D01*
X39859580Y-122235238D02*
X39907200Y-122282857D01*
X39907200Y-122282857D02*
X39954819Y-122378095D01*
X39954819Y-122378095D02*
X39954819Y-122759047D01*
X39954819Y-122759047D02*
X38954819Y-122759047D01*
X38954819Y-122759047D02*
X38954819Y-122425714D01*
X38954819Y-122425714D02*
X39002438Y-122330476D01*
X39002438Y-122330476D02*
X39050057Y-122282857D01*
X39050057Y-122282857D02*
X39145295Y-122235238D01*
X39145295Y-122235238D02*
X39240533Y-122235238D01*
X39240533Y-122235238D02*
X39335771Y-122282857D01*
X39335771Y-122282857D02*
X39383390Y-122330476D01*
X39383390Y-122330476D02*
X39431009Y-122425714D01*
X39431009Y-122425714D02*
X39431009Y-122759047D01*
X38954819Y-121901904D02*
X38954819Y-121330476D01*
X39954819Y-121616190D02*
X38954819Y-121616190D01*
X39954819Y-120473333D02*
X39954819Y-121044761D01*
X39954819Y-120759047D02*
X38954819Y-120759047D01*
X38954819Y-120759047D02*
X39097676Y-120854285D01*
X39097676Y-120854285D02*
X39192914Y-120949523D01*
X39192914Y-120949523D02*
X39240533Y-121044761D01*
X59314700Y-109511428D02*
X59314700Y-108368571D01*
X59314700Y-87111428D02*
X59314700Y-85968571D01*
X59886128Y-86539999D02*
X58743271Y-86539999D01*
X46614700Y-126021428D02*
X46614700Y-124878571D01*
X47186128Y-125449999D02*
X46043271Y-125449999D01*
X46614700Y-109511428D02*
X46614700Y-108368571D01*
X47186128Y-108939999D02*
X46043271Y-108939999D01*
X59314700Y-126021428D02*
X59314700Y-124878571D01*
X46614700Y-87111428D02*
X46614700Y-85968571D01*
D11*
%TO.C,U1*%
X73550000Y-80070000D02*
X73820000Y-80070000D01*
X80450000Y-80070000D02*
X80180000Y-80070000D01*
X73550000Y-73650000D02*
X73550000Y-80070000D01*
X80450000Y-73650000D02*
X80450000Y-80070000D01*
X73860000Y-81800000D02*
X73390000Y-82140000D01*
X73390000Y-81460000D01*
X73860000Y-81800000D01*
G36*
X73860000Y-81800000D02*
G01*
X73390000Y-82140000D01*
X73390000Y-81460000D01*
X73860000Y-81800000D01*
G37*
%TO.C,SW1*%
X91172500Y-72852500D02*
X89789500Y-72852500D01*
X91172500Y-72852500D02*
X91172500Y-74235500D01*
X90932500Y-73092500D02*
X86092500Y-73092500D01*
X90932500Y-73092500D02*
X90932500Y-82992500D01*
X86092500Y-73092500D02*
X86092500Y-82992500D01*
X89147500Y-77365833D02*
X87877500Y-77365833D01*
X90932500Y-82992500D02*
X86092500Y-82992500D01*
X89147500Y-76012500D02*
X87877500Y-76012500D01*
X87877500Y-77365833D01*
X89147500Y-77365833D01*
X89147500Y-76012500D01*
G36*
X89147500Y-76012500D02*
G01*
X87877500Y-76012500D01*
X87877500Y-77365833D01*
X89147500Y-77365833D01*
X89147500Y-76012500D01*
G37*
X89147500Y-76012500D02*
X87877500Y-76012500D01*
X87877500Y-80072500D01*
X89147500Y-80072500D01*
X89147500Y-76012500D01*
%TO.C,R2*%
X75700000Y-103000000D02*
X76320000Y-103000000D01*
X75700000Y-103000000D02*
G75*
G02*
X73860000Y-103000000I-920000J0D01*
G01*
X73860000Y-103000000D02*
G75*
G02*
X75700000Y-103000000I920000J0D01*
G01*
%TO.C,R1*%
X75700000Y-97000000D02*
X76320000Y-97000000D01*
X75700000Y-97000000D02*
G75*
G02*
X73860000Y-97000000I-920000J0D01*
G01*
X73860000Y-97000000D02*
G75*
G02*
X75700000Y-97000000I920000J0D01*
G01*
%TO.C,D2*%
X82170000Y-101764000D02*
X82170000Y-101920000D01*
X82170000Y-104080000D02*
X82170000Y-104236000D01*
X82170000Y-101764484D02*
G75*
G02*
X85401437Y-101920000I1560000J-1235516D01*
G01*
X82689039Y-101920000D02*
G75*
G02*
X84770961Y-101920000I1040961J-1080000D01*
G01*
X84770961Y-104080000D02*
G75*
G02*
X82689039Y-104080000I-1040961J1080000D01*
G01*
X85401437Y-104080000D02*
G75*
G02*
X82170000Y-104235516I-1671437J1080000D01*
G01*
%TO.C,D1*%
X82440000Y-95764000D02*
X82440000Y-95920000D01*
X82440000Y-98080000D02*
X82440000Y-98236000D01*
X82440000Y-95764484D02*
G75*
G02*
X85671437Y-95920000I1560000J-1235516D01*
G01*
X82959039Y-95920000D02*
G75*
G02*
X85040961Y-95920000I1040961J-1080000D01*
G01*
X85040961Y-98080000D02*
G75*
G02*
X82959039Y-98080000I-1040961J1080000D01*
G01*
X85671437Y-98080000D02*
G75*
G02*
X82440000Y-98235516I-1671437J1080000D01*
G01*
%TO.C,C3*%
X74630000Y-118800000D02*
X76130000Y-118800000D01*
X75240000Y-121000000D02*
X76380000Y-121000000D01*
X75380000Y-118050000D02*
X75380000Y-119550000D01*
X76380000Y-118630000D02*
X76380000Y-123370000D01*
X76380000Y-118630000D02*
X77880000Y-118630000D01*
X76380000Y-123370000D02*
X77880000Y-123370000D01*
X77880000Y-118630000D02*
X78630000Y-119380000D01*
X77880000Y-123370000D02*
X78630000Y-122620000D01*
X78630000Y-119380000D02*
X79380000Y-118630000D01*
X78630000Y-122620000D02*
X79380000Y-123370000D01*
X79380000Y-118630000D02*
X86620000Y-118630000D01*
X79380000Y-123370000D02*
X86620000Y-123370000D01*
X86620000Y-118630000D02*
X86620000Y-123370000D01*
X87760000Y-121000000D02*
X86620000Y-121000000D01*
%TO.C,C2*%
X74630000Y-109542500D02*
X76130000Y-109542500D01*
X75240000Y-111742500D02*
X76380000Y-111742500D01*
X75380000Y-108792500D02*
X75380000Y-110292500D01*
X76380000Y-109372500D02*
X76380000Y-114112500D01*
X76380000Y-109372500D02*
X77880000Y-109372500D01*
X76380000Y-114112500D02*
X77880000Y-114112500D01*
X77880000Y-109372500D02*
X78630000Y-110122500D01*
X77880000Y-114112500D02*
X78630000Y-113362500D01*
X78630000Y-110122500D02*
X79380000Y-109372500D01*
X78630000Y-113362500D02*
X79380000Y-114112500D01*
X79380000Y-109372500D02*
X86620000Y-109372500D01*
X79380000Y-114112500D02*
X86620000Y-114112500D01*
X86620000Y-109372500D02*
X86620000Y-114112500D01*
X87760000Y-111742500D02*
X86620000Y-111742500D01*
%TO.C,C1*%
X75130000Y-87542500D02*
X76630000Y-87542500D01*
X75740000Y-89742500D02*
X76880000Y-89742500D01*
X75880000Y-86792500D02*
X75880000Y-88292500D01*
X76880000Y-87372500D02*
X76880000Y-92112500D01*
X76880000Y-87372500D02*
X78380000Y-87372500D01*
X76880000Y-92112500D02*
X78380000Y-92112500D01*
X78380000Y-87372500D02*
X79130000Y-88122500D01*
X78380000Y-92112500D02*
X79130000Y-91362500D01*
X79130000Y-88122500D02*
X79880000Y-87372500D01*
X79130000Y-91362500D02*
X79880000Y-92112500D01*
X79880000Y-87372500D02*
X87120000Y-87372500D01*
X79880000Y-92112500D02*
X87120000Y-92112500D01*
X87120000Y-87372500D02*
X87120000Y-92112500D01*
X88260000Y-89742500D02*
X87120000Y-89742500D01*
%TO.C,BT1*%
X40450000Y-124340000D02*
X65250000Y-124340000D01*
X65255000Y-124340000D02*
X65255000Y-71140000D01*
X41420000Y-122910000D02*
X64280000Y-122910000D01*
X52500000Y-122910000D02*
X52500000Y-100050000D01*
X64280000Y-122910000D02*
X64280000Y-120370000D01*
X41420000Y-120370000D02*
X41420000Y-122910000D01*
X42690000Y-120370000D02*
X41420000Y-120370000D01*
X42690000Y-120370000D02*
X42690000Y-107670000D01*
X63010000Y-120370000D02*
X63010000Y-107670000D01*
X64280000Y-120370000D02*
X63010000Y-120370000D01*
X41420000Y-107670000D02*
X42690000Y-107670000D01*
X45230000Y-107670000D02*
X45230000Y-106400000D01*
X47770000Y-107670000D02*
X45230000Y-107670000D01*
X56660000Y-107670000D02*
X56660000Y-89080000D01*
X61740000Y-107670000D02*
X56660000Y-107670000D01*
X63010000Y-107670000D02*
X64280000Y-107670000D01*
X64280000Y-107670000D02*
X64280000Y-87810000D01*
X43960000Y-106400000D02*
X43960000Y-87810000D01*
X45230000Y-106400000D02*
X43960000Y-106400000D01*
X47770000Y-106400000D02*
X47770000Y-107670000D01*
X49040000Y-106400000D02*
X47770000Y-106400000D01*
X52500000Y-100050000D02*
X53200000Y-100050000D01*
X53200000Y-100050000D02*
X53200000Y-122910000D01*
X52500000Y-92890000D02*
X53200000Y-92890000D01*
X53200000Y-92890000D02*
X53200000Y-72570000D01*
X56660000Y-89080000D02*
X57930000Y-89080000D01*
X57930000Y-89080000D02*
X57930000Y-87810000D01*
X60470000Y-89080000D02*
X61740000Y-89080000D01*
X61740000Y-89080000D02*
X61740000Y-107670000D01*
X41420000Y-87810000D02*
X41420000Y-107670000D01*
X42690000Y-87810000D02*
X41420000Y-87810000D01*
X43960000Y-87810000D02*
X49040000Y-87810000D01*
X49040000Y-87810000D02*
X49040000Y-106400000D01*
X57930000Y-87810000D02*
X60470000Y-87810000D01*
X60470000Y-87810000D02*
X60470000Y-89080000D01*
X64280000Y-87810000D02*
X63010000Y-87810000D01*
X41420000Y-75110000D02*
X42690000Y-75110000D01*
X42690000Y-75110000D02*
X42690000Y-87810000D01*
X63010000Y-75110000D02*
X63010000Y-87810000D01*
X64280000Y-75110000D02*
X63010000Y-75110000D01*
X41420000Y-72570000D02*
X41420000Y-75110000D01*
X41420000Y-72570000D02*
X64280000Y-72570000D01*
X52500000Y-72570000D02*
X52500000Y-92890000D01*
X64280000Y-72570000D02*
X64280000Y-75110000D01*
X40445000Y-71140000D02*
X40445000Y-124340000D01*
X65250000Y-71140000D02*
X40450000Y-71140000D01*
%TD*%
M02*
