%TF.GenerationSoftware,KiCad,Pcbnew,9.0.7*%
%TF.CreationDate,2026-01-04T10:47:51+09:00*%
%TF.ProjectId,PCB,5043422e-6b69-4636-9164-5f7063625858,rev?*%
%TF.SameCoordinates,Original*%
%TF.FileFunction,Copper,L2,Bot*%
%TF.FilePolarity,Positive*%
%FSLAX46Y46*%
G04 Gerber Fmt 4.6, Leading zero omitted, Abs format (unit mm)*
G04 Created by KiCad (PCBNEW 9.0.7) date 2026-01-04 10:47:51*
%MOMM*%
%LPD*%
G01*
G04 APERTURE LIST*
G04 Aperture macros list*
%AMRoundRect*
0 Rectangle with rounded corners*
0 $1 Rounding radius*
0 $2 $3 $4 $5 $6 $7 $8 $9 X,Y pos of 4 corners*
0 Add a 4 corners polygon primitive as box body*
4,1,4,$2,$3,$4,$5,$6,$7,$8,$9,$2,$3,0*
0 Add four circle primitives for the rounded corners*
1,1,$1+$1,$2,$3*
1,1,$1+$1,$4,$5*
1,1,$1+$1,$6,$7*
1,1,$1+$1,$8,$9*
0 Add four rect primitives between the rounded corners*
20,1,$1+$1,$2,$3,$4,$5,0*
20,1,$1+$1,$4,$5,$6,$7,0*
20,1,$1+$1,$6,$7,$8,$9,0*
20,1,$1+$1,$8,$9,$2,$3,0*%
G04 Aperture macros list end*
%TA.AperFunction,NonConductor*%
%ADD10C,0.200000*%
%TD*%
%TA.AperFunction,Conductor*%
%ADD11C,0.200000*%
%TD*%
%TA.AperFunction,ComponentPad*%
%ADD12RoundRect,0.250000X-0.550000X0.550000X-0.550000X-0.550000X0.550000X-0.550000X0.550000X0.550000X0*%
%TD*%
%TA.AperFunction,ComponentPad*%
%ADD13C,1.600000*%
%TD*%
%TA.AperFunction,ComponentPad*%
%ADD14C,1.400000*%
%TD*%
%TA.AperFunction,ComponentPad*%
%ADD15R,1.800000X1.800000*%
%TD*%
%TA.AperFunction,ComponentPad*%
%ADD16C,1.800000*%
%TD*%
%TA.AperFunction,ComponentPad*%
%ADD17RoundRect,0.250000X-0.750000X-0.750000X0.750000X-0.750000X0.750000X0.750000X-0.750000X0.750000X0*%
%TD*%
%TA.AperFunction,ComponentPad*%
%ADD18C,2.000000*%
%TD*%
%TA.AperFunction,ComponentPad*%
%ADD19R,2.000000X2.000000*%
%TD*%
G04 APERTURE END LIST*
D10*
X77500000Y-97500000D02*
X83000000Y-97000000D01*
X77500000Y-103500000D02*
X82500000Y-103500000D01*
D11*
%TO.N,Net-(U1-VO)*%
X89000000Y-74000000D02*
X79500000Y-82000000D01*
D10*
X82000000Y-82000000D02*
X88500000Y-82000000D01*
X82000000Y-85500000D02*
X82000000Y-82000000D01*
X69000000Y-86000000D02*
X82000000Y-85500000D01*
X69000000Y-88000000D02*
X69000000Y-86000000D01*
X69000000Y-98000000D02*
X69000000Y-88000000D01*
X74500000Y-103000000D02*
X69000000Y-98000000D01*
X74000000Y-121000000D02*
X74500000Y-103000000D01*
X75000000Y-97500000D02*
X75000000Y-82000000D01*
D11*
%TO.N,Net-(BT1-+)*%
X59000000Y-108500000D02*
X75000000Y-97500000D01*
X59000000Y-118500000D02*
X59000000Y-108500000D01*
X53000000Y-121500000D02*
X59000000Y-118500000D01*
X46500000Y-122000000D02*
X53000000Y-121500000D01*
D10*
X36500000Y-66500000D02*
X94000000Y-66500000D01*
X94000000Y-129500000D01*
X36500000Y-129500000D01*
X36500000Y-66500000D01*
%TD*%
D12*
%TO.P,SW1,1*%
%TO.N,Net-(U1-VO)*%
X88512500Y-74232500D03*
D13*
%TO.P,SW1,2*%
%TO.N,VCC*%
X88512500Y-81852500D03*
%TD*%
D14*
%TO.P,R2,1*%
%TO.N,VCC*%
X74780000Y-103000000D03*
%TO.P,R2,2*%
%TO.N,Net-(D2-A)*%
X77320000Y-103000000D03*
%TD*%
%TO.P,R1,1*%
%TO.N,Net-(BT1-+)*%
X74780000Y-97000000D03*
%TO.P,R1,2*%
%TO.N,Net-(D1-A)*%
X77320000Y-97000000D03*
%TD*%
D15*
%TO.P,D2,1,K*%
%TO.N,GND*%
X82460000Y-103000000D03*
D16*
%TO.P,D2,2,A*%
%TO.N,Net-(D2-A)*%
X85000000Y-103000000D03*
%TD*%
D15*
%TO.P,D1,1,K*%
%TO.N,GND*%
X82730000Y-97000000D03*
D16*
%TO.P,D1,2,A*%
%TO.N,Net-(D1-A)*%
X85270000Y-97000000D03*
%TD*%
D17*
%TO.P,C3,1*%
%TO.N,VCC*%
X74000000Y-121000000D03*
D18*
%TO.P,C3,2*%
%TO.N,GND*%
X89000000Y-121000000D03*
%TD*%
D17*
%TO.P,C2,1*%
%TO.N,Net-(BT1-+)*%
X74000000Y-111742500D03*
D18*
%TO.P,C2,2*%
%TO.N,GND*%
X89000000Y-111742500D03*
%TD*%
D17*
%TO.P,C1,1*%
%TO.N,VCC*%
X74500000Y-89742500D03*
D18*
%TO.P,C1,2*%
%TO.N,GND*%
X89500000Y-89742500D03*
%TD*%
D19*
%TO.P,BT1,1,+*%
%TO.N,Net-(BT1-+)*%
X46500000Y-121640000D03*
D18*
%TO.P,BT1,2,-*%
%TO.N,GND*%
X59200000Y-121640000D03*
%TD*%
M02*
